<svg width="21" height="20" viewBox="0 0 21 20" fill="none" xmlns="http://www.w3.org/2000/svg">
<path d="M18.8333 10.193C18.8333 9.49389 18.7766 8.98368 18.6538 8.45459H10.6701V11.6103H15.3563C15.2619 12.3945 14.7517 13.5755 13.6179 14.3691L13.602 14.4748L16.1263 16.4303L16.3012 16.4478C17.9074 14.9644 18.8333 12.7818 18.8333 10.193Z" fill="#4285F4"/>
<path d="M10.6701 18.5067C12.9659 18.5067 14.8934 17.7508 16.3012 16.447L13.6179 14.3683C12.8998 14.8691 11.9361 15.2186 10.6701 15.2186C8.4214 15.2186 6.51287 13.7353 5.83254 11.6851L5.73281 11.6935L3.108 13.7249L3.07367 13.8203C4.47199 16.5981 7.34426 18.5067 10.6701 18.5067Z" fill="#34A853"/>
<path d="M5.83255 11.6853C5.65303 11.1562 5.54914 10.5893 5.54914 10.0035C5.54914 9.41767 5.65303 8.8508 5.8231 8.32171L5.81835 8.20902L3.16064 6.14502L3.07368 6.18638C2.49736 7.33908 2.16667 8.63351 2.16667 10.0035C2.16667 11.3735 2.49736 12.6679 3.07368 13.8206L5.83255 11.6853Z" fill="#FBBC05"/>
<path d="M10.6701 4.78796C12.2668 4.78796 13.3439 5.47768 13.958 6.05406L16.3579 3.71088C14.884 2.3409 12.9659 1.5 10.6701 1.5C7.34426 1.5 4.47199 3.40853 3.07367 6.18628L5.82309 8.32161C6.51287 6.27135 8.4214 4.78796 10.6701 4.78796Z" fill="#EB4335"/>
</svg>
